# Blender v2.80 (sub 75) OBJ File: 'airplane.blend'
# www.blender.org
mtllib airplane.mtl
o Cube
v 0.005569 0.878968 -0.024117
v 0.005569 1.082420 2.404190
v 0.005568 -0.933539 2.426214
v 0.005569 -0.933539 3.399637
v 0.005568 0.047305 -5.118050
v 0.005569 -0.065036 5.024161
v 0.005568 -0.933539 -0.002093
v 0.005569 0.543730 3.370053
v 0.005569 0.386218 4.866415
v 0.005569 -0.551394 4.882874
v 0.005569 0.195761 5.430549
v 0.005569 0.060932 5.428007
v 0.005569 0.326160 5.024160
v 0.005569 0.924646 2.887121
v 0.005569 -0.933539 2.912926
v 0.005568 1.724789 -3.559940
v 0.005568 1.628987 -4.822715
v 0.005568 0.353123 -3.244916
v 0.005568 -0.437572 -3.228868
v 0.005568 -0.149130 -5.105476
v -0.797909 0.878968 -0.024117
v -0.797909 1.082420 2.404190
v -0.797909 -0.933539 2.426214
v -0.797909 -0.933539 3.399637
v -0.797909 0.047305 -5.118050
v -0.797909 -0.933539 -0.002093
v -0.797909 0.543730 3.370053
v -0.797909 0.386218 4.142036
v -0.797909 -0.677582 4.158495
v -0.054125 0.195761 5.430549
v -0.183364 0.326160 5.024160
v -0.797909 0.924646 2.887121
v -0.797909 -0.933539 2.912926
v -0.797909 1.724789 -3.559940
v -0.797909 1.628987 -4.822715
v -0.797909 0.353123 -3.244916
v -0.797909 -0.437572 -3.228868
v -0.797909 -0.149130 -5.105476
v 0.005569 0.905257 0.289653
v 0.005568 -0.933539 0.311677
v -0.797909 0.905257 0.289653
v -0.797909 -0.933539 0.311677
v -6.893853 0.105844 1.633949
v -6.893853 0.023569 1.655974
v -6.893853 0.023569 2.629397
v -6.893853 0.038596 2.599812
v -6.893853 0.080853 2.116880
v -6.893853 0.023569 2.142685
v -6.893853 0.061463 1.268634
v -6.893853 0.023569 1.290658
v -1.549674 -0.274017 2.792133
v -1.549674 -0.654932 3.065413
v -1.549674 -0.730085 2.817938
v -1.549674 -0.730085 3.094998
v -1.549674 -0.116242 2.309202
v -1.549674 -0.293406 0.410383
v -1.549674 -0.730085 2.331226
v -1.549674 -0.730085 0.432407
v -0.183364 -0.065036 5.024161
v -0.054125 0.060932 5.428007
v -2.103371 0.047305 -4.806306
v -2.169002 0.154314 -3.674747
v -2.169002 -0.307428 -3.573426
v -2.103371 -0.149130 -4.793733
v -0.869648 -0.105827 2.878057
v -0.869648 -0.914124 3.370566
v -0.869648 -0.143448 0.301174
v -0.869648 -0.914124 0.323198
v -0.869648 -0.154035 3.340981
v -0.869648 -0.914124 2.903862
v -0.869648 -0.075667 2.395125
v -0.869648 -0.914124 2.417150
v -0.977881 0.268622 -3.400168
v -0.969267 0.047305 -4.949273
v -0.969267 -0.149130 -4.936699
v -0.977881 -0.437572 -3.298846
v -0.824613 0.047305 -5.091748
v -0.825955 -0.437572 -3.239773
v -0.825955 0.268622 -3.341094
v -0.824613 -0.149130 -5.079175
v 0.005568 -0.293351 -4.167172
v 0.005568 1.676888 -4.191328
v -0.797909 -0.293351 -4.167172
v -0.797909 1.676888 -4.191328
v -0.797909 0.200214 -4.181483
v -2.136187 -0.293351 -4.183579
v -2.136187 0.157964 -4.240527
v -0.973574 -0.293351 -4.117773
v -0.973574 0.157964 -4.174720
v -0.825284 0.157964 -4.216421
v -0.825284 -0.293351 -4.159474
v -0.005569 0.878968 -0.024117
v -0.005568 1.082420 2.404190
v -0.005568 -0.933539 2.426214
v -0.005568 -0.933539 3.399637
v -0.005569 0.047305 -5.118050
v -0.005568 -0.065036 5.024161
v -0.005568 -0.933539 -0.002093
v -0.005568 0.543730 3.370053
v -0.005568 0.386218 4.866415
v -0.005568 -0.551394 4.882874
v -0.005568 0.195761 5.430549
v -0.005568 0.060932 5.428007
v -0.005568 0.326160 5.024160
v -0.005568 0.924646 2.887121
v -0.005568 -0.933539 2.912926
v -0.005569 1.724789 -3.559940
v -0.005569 1.628987 -4.822715
v -0.005569 0.353123 -3.244916
v -0.005569 -0.437572 -3.228868
v -0.005569 -0.149130 -5.105476
v 0.797909 0.878968 -0.024117
v 0.797909 1.082420 2.404190
v 0.797909 -0.933539 2.426214
v 0.797909 -0.933539 3.399637
v 0.797909 0.047305 -5.118050
v 0.797909 -0.933539 -0.002093
v 0.797909 0.543730 3.370053
v 0.797909 0.386218 4.142036
v 0.797909 -0.677582 4.158495
v 0.054125 0.195761 5.430549
v 0.183364 0.326160 5.024160
v 0.797909 0.924646 2.887121
v 0.797909 -0.933539 2.912926
v 0.797909 1.724789 -3.559940
v 0.797909 1.628987 -4.822715
v 0.797909 0.353123 -3.244916
v 0.797909 -0.437572 -3.228868
v 0.797909 -0.149130 -5.105476
v -0.005568 0.905257 0.289653
v -0.005568 -0.933539 0.311677
v 0.797909 0.905257 0.289653
v 0.797909 -0.933539 0.311677
v 6.893853 0.105844 1.633949
v 6.893853 0.023569 1.655973
v 6.893853 0.023569 2.629396
v 6.893853 0.038596 2.599811
v 6.893853 0.080853 2.116880
v 6.893853 0.023569 2.142684
v 6.893853 0.061463 1.268633
v 6.893853 0.023569 1.290657
v 1.549674 -0.274017 2.792133
v 1.549674 -0.654932 3.065413
v 1.549674 -0.730085 2.817938
v 1.549674 -0.730085 3.094998
v 1.549674 -0.116242 2.309202
v 1.549674 -0.293406 0.410383
v 1.549674 -0.730085 2.331226
v 1.549674 -0.730085 0.432407
v 0.183364 -0.065036 5.024161
v 0.054125 0.060932 5.428007
v 2.103371 0.047305 -4.806306
v 2.169001 0.154314 -3.674747
v 2.169001 -0.307428 -3.573426
v 2.103371 -0.149130 -4.793733
v 0.869648 -0.105827 2.878057
v 0.869648 -0.914124 3.370566
v 0.869648 -0.143448 0.301174
v 0.869648 -0.914124 0.323198
v 0.869648 -0.154035 3.340981
v 0.869648 -0.914124 2.903862
v 0.869648 -0.075667 2.395125
v 0.869648 -0.914124 2.417150
v 0.977881 0.268622 -3.400168
v 0.969266 0.047305 -4.949273
v 0.969266 -0.149130 -4.936699
v 0.977881 -0.437572 -3.298846
v 0.824612 0.047305 -5.091748
v 0.825955 -0.437572 -3.239773
v 0.825955 0.268622 -3.341094
v 0.824612 -0.149130 -5.079175
v -0.005569 -0.293351 -4.167172
v -0.005569 1.676888 -4.191328
v 0.797909 -0.293351 -4.167172
v 0.797909 1.676888 -4.191328
v 0.797909 0.200214 -4.181483
v 2.136186 -0.293351 -4.183579
v 2.136186 0.157964 -4.240527
v 0.973574 -0.293351 -4.117773
v 0.973574 0.157964 -4.174720
v 0.825283 0.157964 -4.216421
v 0.825283 -0.293351 -4.159474
vt 0.000000 0.000000
vt 0.000000 0.000000
vt 0.000000 0.000000
vt 0.000000 0.000000
vt 0.000000 0.000000
vt 0.000000 0.000000
vt 0.000000 0.000000
vt 0.000000 0.000000
vt 0.000000 0.000000
vt 0.000000 0.000000
vt 0.000000 0.000000
vt 0.000000 0.000000
vt 0.000000 0.000000
vt 0.000000 0.000000
vt 0.000000 0.000000
vt 0.000000 0.000000
vt 0.000000 0.000000
vt 0.000000 0.000000
vt 0.000000 0.000000
vt 0.000000 0.000000
vt 0.000000 0.000000
vt 0.000000 0.000000
vt 0.000000 0.000000
vt 0.000000 0.000000
vt 0.000000 0.000000
vt 0.000000 0.000000
vt 0.000000 0.000000
vt 0.000000 0.000000
vt 0.000000 0.000000
vt 0.000000 0.000000
vt 0.000000 0.000000
vt 0.000000 0.000000
vt 0.000000 0.000000
vt 0.000000 0.000000
vt 0.000000 0.000000
vt 0.000000 0.000000
vt 0.000000 0.000000
vt 0.000000 0.000000
vt 0.000000 0.000000
vt 0.000000 0.000000
vt 0.000000 0.000000
vt 0.000000 0.000000
vt 0.000000 0.000000
vt 0.000000 0.000000
vt 0.000000 0.000000
vt 0.000000 0.000000
vt 0.000000 0.000000
vt 0.000000 0.000000
vt 0.000000 0.000000
vt 0.000000 0.000000
vt 0.000000 0.000000
vt 0.000000 0.000000
vt 0.000000 0.000000
vt 0.000000 0.000000
vt 0.000000 0.000000
vt 0.000000 0.000000
vt 0.000000 0.000000
vt 0.000000 0.000000
vt 0.000000 0.000000
vt 0.000000 0.000000
vt 0.000000 0.000000
vt 0.000000 0.000000
vt 0.000000 0.000000
vt 0.000000 0.000000
vt 0.000000 0.000000
vt 0.000000 0.000000
vt 0.000000 0.000000
vt 0.000000 0.000000
vt 0.000000 0.000000
vt 0.000000 0.000000
vt 0.000000 0.000000
vt 0.000000 0.000000
vt 0.000000 0.000000
vt 0.000000 0.000000
vt 0.000000 0.000000
vt 0.000000 0.000000
vt 0.000000 0.000000
vt 0.000000 0.000000
vt 0.000000 0.000000
vt 0.000000 0.000000
vt 0.000000 0.000000
vt 0.000000 0.000000
vt 0.000000 0.000000
vt 0.000000 0.000000
vt 0.000000 0.000000
vt 0.000000 0.000000
vt 0.000000 0.000000
vt 0.000000 0.000000
vt 0.000000 0.000000
vt 0.000000 0.000000
vt 0.000000 0.000000
vt 0.000000 0.000000
vt 0.000000 0.000000
vt 0.000000 0.000000
vt 0.000000 0.000000
vt 0.000000 0.000000
vt 0.000000 0.000000
vt 0.000000 0.000000
vt 0.000000 0.000000
vt 0.000000 0.000000
vt 0.000000 0.000000
vt 0.000000 0.000000
vt 0.000000 0.000000
vt 0.000000 0.000000
vt 0.000000 0.000000
vt 0.000000 0.000000
vt 0.000000 0.000000
vt 0.000000 0.000000
vt 0.000000 0.000000
vt 0.000000 0.000000
vt 0.000000 0.000000
vt 0.000000 0.000000
vt 0.000000 0.000000
vt 0.000000 0.000000
vt 0.000000 0.000000
vt 0.000000 0.000000
vt 0.000000 0.000000
vt 0.000000 0.000000
vt 0.000000 0.000000
vt 0.000000 0.000000
vt 0.000000 0.000000
vt 0.000000 0.000000
vt 0.000000 0.000000
vt 0.000000 0.000000
vt 0.000000 0.000000
vt 0.000000 0.000000
vt 0.000000 0.000000
vt 0.000000 0.000000
vt 0.000000 0.000000
vt 0.000000 0.000000
vt 0.000000 0.000000
vt 0.000000 0.000000
vt 0.000000 0.000000
vt 0.000000 0.000000
vt 0.000000 0.000000
vt 0.000000 0.000000
vt 0.000000 0.000000
vt 0.000000 0.000000
vt 0.000000 0.000000
vt 0.000000 0.000000
vt 0.000000 0.000000
vt 0.000000 0.000000
vt 0.000000 0.000000
vt 0.000000 0.000000
vt 0.000000 0.000000
vt 0.000000 0.000000
vt 0.000000 0.000000
vt 0.000000 0.000000
vt 0.000000 0.000000
vt 0.000000 0.000000
vt 0.000000 0.000000
vt 0.000000 0.000000
vt 0.000000 0.000000
vt 0.000000 0.000000
vt 0.000000 0.000000
vt 0.000000 0.000000
vt 0.000000 0.000000
vt 0.000000 0.000000
vt 0.000000 0.000000
vt 0.000000 0.000000
vt 0.000000 0.000000
vt 0.000000 0.000000
vt 0.000000 0.000000
vt 0.000000 0.000000
vt 0.000000 0.000000
vt 0.000000 0.000000
vt 0.000000 0.000000
vt 0.000000 0.000000
vt 0.000000 0.000000
vt 0.000000 0.000000
vt 0.000000 0.000000
vt 0.000000 0.000000
vt 0.000000 0.000000
vt 0.000000 0.000000
vt 0.000000 0.000000
vt 0.000000 0.000000
vt 0.000000 0.000000
vt 0.000000 0.000000
vt 0.000000 0.000000
vt 0.000000 0.000000
vt 0.000000 0.000000
vt 0.000000 0.000000
vn 0.0000 0.7852 0.6193
vn 1.0000 0.0000 0.0000
vn 0.0000 0.1835 -0.9830
vn 0.0000 -1.0000 0.0000
vn 0.0000 0.9971 -0.0756
vn -0.1438 0.9698 0.1970
vn 0.0000 0.9506 0.3105
vn -1.0000 0.0000 0.0000
vn 0.0520 0.9939 -0.0973
vn -0.0367 0.9961 -0.0805
vn -0.1396 -0.9902 0.0000
vn 0.0000 0.9522 0.3055
vn 0.0000 -0.9884 -0.1519
vn 0.0000 -0.0639 -0.9980
vn -0.0000 0.9869 -0.1611
vn -0.0478 -0.9607 0.2734
vn 0.6701 -0.0122 -0.7422
vn -0.0619 0.9886 0.1373
vn 0.0000 0.2238 0.9746
vn -0.0000 0.9965 -0.0835
vn 0.0335 0.8722 0.4881
vn 0.0014 0.5486 0.8361
vn 0.0295 0.9821 0.1858
vn -0.1671 -0.0911 -0.9817
vn -0.2612 -0.9653 0.0000
vn -0.1593 -0.0360 -0.9866
vn -0.1722 0.9669 0.1881
vn -0.3878 0.0651 0.9195
vn -0.4879 0.7542 0.4396
vn -0.1395 0.9884 -0.0606
vn -0.5013 -0.4153 0.7591
vn -0.8189 0.0065 0.5738
vn -0.9527 -0.0015 0.3039
vn 0.0000 -0.9546 0.2978
vn 0.0000 -0.0189 0.9998
vn -0.9984 -0.0060 -0.0559
vn -0.0067 -0.9802 -0.1980
vn -0.2204 0.1667 0.9610
vn -0.1248 -0.0634 -0.9902
vn -0.9979 0.0649 -0.0038
vn -0.9960 0.0819 0.0371
vn -0.4684 0.0234 0.8832
vn -0.9978 0.0653 0.0127
vn -0.0395 -0.0169 -0.9991
vn -0.7010 -0.0456 -0.7117
vn -0.3592 0.1325 0.9238
vn -0.1025 -0.9813 -0.1631
vn 0.0077 0.9911 -0.1329
vn -0.8870 0.4569 -0.0668
vn -0.0960 -0.9836 -0.1527
vn -0.8963 0.0347 0.4421
vn 0.0089 -0.9881 -0.1534
vn -0.6000 0.7916 -0.1154
vn -0.0835 0.9876 -0.1327
vn 0.0095 -0.9865 -0.1636
vn -0.0389 -0.9931 -0.1110
vn -0.9984 -0.0097 -0.0559
vn -0.0055 0.9866 -0.1631
vn 0.1438 0.9698 0.1970
vn -0.0520 0.9939 -0.0973
vn 0.0367 0.9961 -0.0805
vn 0.1396 -0.9902 -0.0000
vn 0.0478 -0.9607 0.2734
vn -0.6701 -0.0122 -0.7422
vn 0.0619 0.9886 0.1373
vn -0.0335 0.8722 0.4881
vn -0.0014 0.5486 0.8361
vn -0.0295 0.9821 0.1858
vn 0.1671 -0.0911 -0.9817
vn 0.2612 -0.9653 -0.0000
vn 0.1593 -0.0360 -0.9866
vn 0.1722 0.9669 0.1881
vn 0.3878 0.0651 0.9195
vn 0.4879 0.7542 0.4396
vn 0.1395 0.9884 -0.0606
vn 0.5013 -0.4153 0.7591
vn 0.8189 0.0065 0.5738
vn 0.9527 -0.0015 0.3039
vn 0.9984 -0.0060 -0.0559
vn 0.0067 -0.9802 -0.1980
vn 0.2204 0.1667 0.9610
vn 0.1248 -0.0634 -0.9902
vn 0.9979 0.0649 -0.0038
vn 0.9960 0.0819 0.0371
vn 0.4684 0.0234 0.8832
vn 0.9978 0.0653 0.0127
vn 0.0395 -0.0169 -0.9991
vn 0.7010 -0.0456 -0.7117
vn 0.3592 0.1325 0.9238
vn 0.1025 -0.9813 -0.1631
vn -0.0077 0.9911 -0.1329
vn 0.8870 0.4569 -0.0668
vn 0.0960 -0.9836 -0.1527
vn 0.8963 0.0347 0.4421
vn -0.0089 -0.9881 -0.1534
vn 0.6000 0.7916 -0.1154
vn 0.0835 0.9876 -0.1327
vn -0.0095 -0.9865 -0.1636
vn 0.0389 -0.9931 -0.1110
vn 0.9984 -0.0097 -0.0559
vn 0.0055 0.9866 -0.1631
usemtl Material
s off
f 14/1/1 32/2/1 27/3/1 8/4/1
f 6/5/2 13/6/2 11/7/2 12/8/2
f 5/9/3 25/10/3 35/11/3 17/12/3
f 13/6/2 6/5/2 10/13/2 9/14/2
f 40/15/4 42/16/4 26/17/4 7/18/4
f 82/19/5 84/20/5 34/21/5 16/22/5
f 13/6/6 9/14/6 28/23/6 31/24/6
f 2/25/7 22/26/7 32/2/7 14/1/7
f 4/27/4 24/28/4 33/29/4 15/30/4
f 28/23/8 27/3/8 24/28/8 29/31/8
f 41/32/8 21/33/8 26/17/8 42/16/8
f 56/34/9 49/35/9 43/36/9 55/37/9
f 89/38/10 87/39/10 62/40/10 73/41/10
f 54/42/11 45/43/11 48/44/11 53/45/11
f 85/46/8 84/20/8 35/11/8 25/10/8
f 21/33/8 36/47/8 37/48/8 26/17/8
f 11/7/12 13/6/12 31/24/12 30/49/12
f 15/30/4 33/29/4 23/50/4 3/51/4
f 81/52/13 83/53/13 38/54/13 20/55/13
f 7/18/13 26/17/13 37/48/13 19/56/13
f 20/55/14 38/54/14 25/10/14 5/9/14
f 18/57/15 36/47/15 21/33/15 1/58/15
f 10/13/16 29/31/16 24/28/16 4/27/16
f 9/14/17 10/13/17 29/31/17 28/23/17
f 8/4/18 27/3/18 28/23/18 9/14/18
f 16/22/19 34/21/19 36/47/19 18/57/19
f 39/59/20 41/32/20 22/26/20 2/25/20
f 1/58/20 21/33/20 41/32/20 39/59/20
f 51/60/21 47/61/21 46/62/21 52/63/21
f 3/51/4 23/50/4 42/16/4 40/15/4
f 47/61/8 43/36/8 44/64/8 48/44/8
f 46/62/8 47/61/8 48/44/8 45/43/8
f 43/36/8 49/35/8 50/65/8 44/64/8
f 52/63/22 46/62/22 45/43/22 54/42/22
f 53/45/11 48/44/11 44/64/11 57/66/11
f 55/37/23 43/36/23 47/61/23 51/60/23
f 58/67/24 50/65/24 49/35/24 56/34/24
f 57/66/11 44/64/11 50/65/11 58/67/11
f 72/68/25 57/66/25 58/67/25 68/69/25
f 68/69/26 58/67/26 56/34/26 67/70/26
f 71/71/27 55/37/27 51/60/27 65/72/27
f 70/73/25 53/45/25 57/66/25 72/68/25
f 69/74/28 52/63/28 54/42/28 66/75/28
f 65/72/29 51/60/29 52/63/29 69/74/29
f 66/75/25 54/42/25 53/45/25 70/73/25
f 67/70/30 56/34/30 55/37/30 71/71/30
f 6/5/31 59/76/31 29/31/31 10/13/31
f 28/23/32 29/31/32 59/76/32 31/24/32
f 30/49/33 31/24/33 59/76/33 60/77/33
f 12/8/34 60/77/34 59/76/34 6/5/34
f 12/8/35 11/7/35 30/49/35 60/77/35
f 87/39/36 61/78/36 64/79/36 86/80/36
f 88/81/37 86/80/37 64/79/37 75/82/37
f 73/41/38 62/40/38 63/83/38 76/84/38
f 75/82/39 64/79/39 61/78/39 74/85/39
f 41/32/40 67/70/40 71/71/40 22/26/40
f 24/28/25 66/75/25 70/73/25 33/29/25
f 32/2/41 65/72/41 69/74/41 27/3/41
f 27/3/42 69/74/42 66/75/42 24/28/42
f 33/29/25 70/73/25 72/68/25 23/50/25
f 22/26/43 71/71/43 65/72/43 32/2/43
f 42/16/44 68/69/44 67/70/44 41/32/44
f 23/50/25 72/68/25 68/69/25 42/16/25
f 80/86/45 75/82/45 74/85/45 77/87/45
f 79/88/46 73/41/46 76/84/46 78/89/46
f 91/90/47 88/81/47 75/82/47 80/86/47
f 90/91/48 89/38/48 73/41/48 79/88/48
f 85/46/49 90/91/49 79/88/49 36/47/49
f 83/53/50 91/90/50 80/86/50 38/54/50
f 36/47/51 79/88/51 78/89/51 37/48/51
f 38/54/45 80/86/45 77/87/45 25/10/45
f 37/48/52 78/89/52 91/90/52 83/53/52
f 25/10/53 77/87/53 90/91/53 85/46/53
f 77/87/54 74/85/54 89/38/54 90/91/54
f 78/89/55 76/84/55 88/81/55 91/90/55
f 76/84/56 63/83/56 86/80/56 88/81/56
f 62/40/57 87/39/57 86/80/57 63/83/57
f 19/56/13 37/48/13 83/53/13 81/52/13
f 36/47/8 34/21/8 84/20/8 85/46/8
f 74/85/58 61/78/58 87/39/58 89/38/58
f 17/12/5 35/11/5 84/20/5 82/19/5
f 105/92/1 99/93/1 118/94/1 123/95/1
f 97/96/8 103/97/8 102/98/8 104/99/8
f 96/100/3 108/101/3 126/102/3 116/103/3
f 104/99/8 100/104/8 101/105/8 97/96/8
f 131/106/4 98/107/4 117/108/4 133/109/4
f 173/110/5 107/111/5 125/112/5 175/113/5
f 104/99/59 122/114/59 119/115/59 100/104/59
f 93/116/7 105/92/7 123/95/7 113/117/7
f 95/118/4 106/119/4 124/120/4 115/121/4
f 119/115/2 120/122/2 115/121/2 118/94/2
f 132/123/2 133/109/2 117/108/2 112/124/2
f 147/125/60 146/126/60 134/127/60 140/128/60
f 180/129/61 164/130/61 153/131/61 178/132/61
f 145/133/62 144/134/62 139/135/62 136/136/62
f 176/137/2 116/103/2 126/102/2 175/113/2
f 112/124/2 117/108/2 128/138/2 127/139/2
f 102/98/12 121/140/12 122/114/12 104/99/12
f 106/119/4 94/141/4 114/142/4 124/120/4
f 172/143/13 111/144/13 129/145/13 174/146/13
f 98/107/13 110/147/13 128/138/13 117/108/13
f 111/144/14 96/100/14 116/103/14 129/145/14
f 109/148/15 92/149/15 112/124/15 127/139/15
f 101/105/63 95/118/63 115/121/63 120/122/63
f 100/104/64 119/115/64 120/122/64 101/105/64
f 99/93/65 100/104/65 119/115/65 118/94/65
f 107/111/19 109/148/19 127/139/19 125/112/19
f 130/150/20 93/116/20 113/117/20 132/123/20
f 92/149/20 130/150/20 132/123/20 112/124/20
f 142/151/66 143/152/66 137/153/66 138/154/66
f 94/141/4 131/106/4 133/109/4 114/142/4
f 138/154/2 139/135/2 135/155/2 134/127/2
f 137/153/2 136/136/2 139/135/2 138/154/2
f 134/127/2 135/155/2 141/156/2 140/128/2
f 143/152/67 145/133/67 136/136/67 137/153/67
f 144/134/62 148/157/62 135/155/62 139/135/62
f 146/126/68 142/151/68 138/154/68 134/127/68
f 149/158/69 147/125/69 140/128/69 141/156/69
f 148/157/62 149/158/62 141/156/62 135/155/62
f 163/159/70 159/160/70 149/158/70 148/157/70
f 159/160/71 158/161/71 147/125/71 149/158/71
f 162/162/72 156/163/72 142/151/72 146/126/72
f 161/164/70 163/159/70 148/157/70 144/134/70
f 160/165/73 157/166/73 145/133/73 143/152/73
f 156/163/74 160/165/74 143/152/74 142/151/74
f 157/166/70 161/164/70 144/134/70 145/133/70
f 158/161/75 162/162/75 146/126/75 147/125/75
f 97/96/76 101/105/76 120/122/76 150/167/76
f 119/115/77 122/114/77 150/167/77 120/122/77
f 121/140/78 151/168/78 150/167/78 122/114/78
f 103/97/34 97/96/34 150/167/34 151/168/34
f 103/97/35 151/168/35 121/140/35 102/98/35
f 178/132/79 177/169/79 155/170/79 152/171/79
f 179/172/80 166/173/80 155/170/80 177/169/80
f 164/130/81 167/174/81 154/175/81 153/131/81
f 166/173/82 165/176/82 152/171/82 155/170/82
f 132/123/83 113/117/83 162/162/83 158/161/83
f 115/121/70 124/120/70 161/164/70 157/166/70
f 123/95/84 118/94/84 160/165/84 156/163/84
f 118/94/85 115/121/85 157/166/85 160/165/85
f 124/120/70 114/142/70 163/159/70 161/164/70
f 113/117/86 123/95/86 156/163/86 162/162/86
f 133/109/87 132/123/87 158/161/87 159/160/87
f 114/142/70 133/109/70 159/160/70 163/159/70
f 171/177/88 168/178/88 165/176/88 166/173/88
f 170/179/89 169/180/89 167/174/89 164/130/89
f 182/181/90 171/177/90 166/173/90 179/172/90
f 181/182/91 170/179/91 164/130/91 180/129/91
f 176/137/92 127/139/92 170/179/92 181/182/92
f 174/146/93 129/145/93 171/177/93 182/181/93
f 127/139/94 128/138/94 169/180/94 170/179/94
f 129/145/88 116/103/88 168/178/88 171/177/88
f 128/138/95 174/146/95 182/181/95 169/180/95
f 116/103/96 176/137/96 181/182/96 168/178/96
f 168/178/97 181/182/97 180/129/97 165/176/97
f 169/180/98 182/181/98 179/172/98 167/174/98
f 167/174/99 179/172/99 177/169/99 154/175/99
f 153/131/100 154/175/100 177/169/100 178/132/100
f 110/147/13 172/143/13 174/146/13 128/138/13
f 127/139/2 176/137/2 175/113/2 125/112/2
f 165/176/101 180/129/101 178/132/101 152/171/101
f 108/101/5 173/110/5 175/113/5 126/102/5
